<?xml version="1.0" standalone="no"?>
<!DOCTYPE svg PUBLIC "-//W3C//DTD SVG 20010904//EN"
 "http://www.w3.org/TR/2001/REC-SVG-20010904/DTD/svg10.dtd">
<svg version="1.0" xmlns="http://www.w3.org/2000/svg"
 width="461.000000pt" height="461.000000pt" viewBox="0 0 461.000000 461.000000"
 preserveAspectRatio="xMidYMid meet">
<metadata>
Created by potrace 1.14, written by Peter Selinger 2001-2017
</metadata>
<g transform="translate(0.000000,461.000000) scale(0.100000,-0.100000)"
fill="#000000" stroke="none">
<path d="M2148 3715 c-2 -2 -26 -6 -53 -9 -28 -2 -59 -8 -69 -12 -10 -4 -28
-8 -40 -9 -12 -1 -28 -4 -36 -7 -8 -3 -53 -18 -100 -32 -86 -27 -192 -75 -198
-89 -2 -4 -7 -5 -12 -2 -4 3 -13 -2 -20 -10 -7 -8 -16 -15 -21 -15 -9 0 -87
-48 -99 -60 -3 -3 -23 -18 -45 -35 -121 -90 -294 -281 -346 -384 -8 -14 -17
-28 -20 -31 -9 -8 -69 -139 -96 -209 -18 -49 -20 -62 -9 -58 8 3 20 -1 26 -8
17 -20 26 -12 49 40 11 25 26 45 33 45 18 0 98 -72 98 -88 0 -7 4 -12 9 -12 4
0 7 -12 5 -26 -2 -21 1 -25 16 -21 32 8 43 -7 32 -46 -10 -35 -9 -36 24 -47
39 -13 39 -13 18 -45 -15 -23 -15 -25 1 -31 11 -5 15 -14 11 -29 -3 -12 0 -30
8 -40 10 -14 16 -16 34 -6 22 11 31 41 13 41 -24 0 -40 110 -19 131 13 13 13
23 6 74 -2 16 3 20 27 21 55 3 55 3 47 27 -7 19 -8 51 -3 92 1 6 5 4 10 -3 7
-11 9 -11 14 2 4 9 13 13 22 10 9 -4 25 2 36 12 17 15 22 16 29 4 7 -11 11
-11 24 -1 9 7 14 17 11 21 -3 4 8 22 23 40 l29 32 24 -30 c14 -16 31 -45 38
-63 23 -61 26 -64 65 -62 l37 2 -6 -36 c-3 -19 -8 -39 -10 -44 -3 -4 10 -11
30 -15 20 -3 35 -12 35 -20 0 -8 -4 -14 -9 -14 -17 0 -19 -39 -3 -45 14 -5 14
-7 2 -15 -8 -6 -10 -10 -4 -10 12 0 11 -32 -1 -62 -4 -11 0 -18 14 -23 12 -3
21 -13 21 -21 0 -8 2 -14 4 -14 3 0 81 30 173 66 92 36 173 67 178 68 6 1 27
10 47 19 21 9 46 14 55 12 10 -1 95 -33 188 -70 275 -107 246 -99 252 -75 3
12 12 19 22 18 10 -2 15 3 12 12 -2 8 -5 32 -6 54 -3 30 1 39 15 43 18 5 17 7
-5 31 -21 23 -23 28 -9 35 9 5 23 10 32 12 17 2 20 26 11 70 -3 17 1 20 34 19
34 -2 40 2 69 44 61 88 58 87 94 46 29 -32 35 -34 55 -24 18 10 23 9 31 -4 6
-11 17 -14 35 -10 17 5 24 3 19 -4 -3 -6 1 -12 11 -14 14 -2 16 -13 14 -60
l-2 -58 39 6 40 5 -8 -42 c-7 -35 -5 -46 8 -57 12 -9 12 -11 2 -6 -13 7 -13 5
-2 -8 16 -20 8 -85 -13 -108 -19 -21 -19 -30 3 -46 34 -26 41 -17 45 53 0 12
4 20 8 17 15 -9 18 14 4 32 -21 27 -19 31 20 44 30 10 33 14 25 30 -6 10 -10
31 -9 47 0 15 3 23 5 17 7 -18 52 -5 49 14 -4 28 24 66 80 105 60 41 61 42 63
25 1 -18 12 -70 17 -86 4 -10 9 -10 27 0 13 7 26 11 31 10 4 -1 7 2 7 7 0 27
-88 233 -102 239 -5 2 -8 8 -8 13 0 34 -177 262 -259 333 -13 12 -36 32 -51
46 -15 14 -44 37 -64 50 -20 14 -36 28 -36 33 0 4 -4 7 -9 7 -6 0 -30 14 -54
30 -25 17 -48 30 -51 30 -4 0 -25 12 -49 27 -23 14 -43 26 -44 25 -2 -1 -24 8
-50 19 -51 22 -154 58 -188 65 -11 2 -31 6 -45 10 -14 3 -38 7 -55 10 -16 2
-41 7 -55 11 -26 6 -346 14 -352 8z"/>
<path d="M1591 2854 c-6 -14 -11 -36 -11 -49 0 -28 -17 -42 -33 -26 -18 18
-36 13 -30 -9 4 -17 2 -19 -13 -13 -18 7 -18 6 -2 -19 20 -31 12 -45 -14 -21
-15 13 -18 14 -18 2 0 -8 4 -19 9 -24 5 -6 12 -19 15 -31 6 -18 3 -20 -24 -16
-53 8 -29 -34 35 -61 l40 -17 -40 5 c-21 3 -42 9 -45 13 -10 14 -49 31 -54 24
-7 -11 55 -61 101 -83 l38 -17 -37 -1 c-21 -1 -56 6 -78 15 -49 20 -60 14 -29
-15 12 -11 20 -24 16 -27 -7 -7 3 -18 45 -50 l27 -21 -49 0 c-27 0 -57 -6 -66
-14 -15 -12 -14 -15 7 -32 l24 -19 -42 7 c-35 5 -41 4 -39 -9 4 -31 46 -49
138 -61 33 -4 39 -1 57 28 15 25 36 38 98 61 43 16 83 34 90 39 7 5 16 6 22 3
5 -3 11 -1 13 4 3 10 21 16 51 19 4 1 7 4 7 9 0 4 -15 7 -32 6 -18 -1 -42 2
-53 7 -17 6 -16 8 10 9 17 2 34 2 38 1 5 -1 2 8 -6 20 -14 19 -13 23 4 40 27
27 17 37 -33 32 l-42 -5 37 50 36 51 -50 -2 c-33 0 -53 4 -59 13 -11 18 -3 30
20 30 29 0 50 11 50 26 0 8 -10 14 -22 14 -34 0 -49 14 -52 46 -4 34 -21 80
-34 88 -5 3 -14 -6 -21 -20z"/>
<path d="M2978 2833 c-10 -11 -19 -28 -21 -39 -4 -31 -15 -42 -47 -49 -40 -9
-38 -21 5 -36 65 -24 53 -52 -21 -51 -24 1 -44 -1 -44 -4 0 -7 24 -47 38 -62
21 -23 13 -31 -27 -28 -43 3 -48 -9 -18 -42 16 -18 16 -20 2 -26 -25 -9 3 -33
34 -29 l26 3 -25 -10 c-13 -6 -40 -9 -58 -6 -45 6 -30 -6 43 -34 33 -12 79
-31 101 -41 23 -10 53 -21 68 -25 14 -3 35 -21 47 -40 20 -33 22 -34 72 -28
54 7 81 17 109 42 25 22 12 34 -30 27 l-37 -6 23 18 c20 16 21 21 9 31 -8 7
-35 14 -61 16 -59 4 -65 10 -26 26 18 7 33 22 36 36 4 14 16 31 27 39 28 20
17 28 -19 14 -44 -17 -128 -24 -120 -10 4 6 15 11 25 11 10 0 24 7 31 15 7 8
17 15 22 15 5 0 20 11 34 25 30 30 21 31 -37 5 -24 -11 -53 -19 -64 -19 -12 0
-5 6 20 16 67 28 87 68 30 61 -19 -2 -35 -2 -35 -1 0 2 10 17 22 33 23 31 19
51 -6 31 -9 -8 -16 -8 -20 -2 -4 5 -2 12 4 16 15 9 12 35 -4 29 -10 -4 -12 2
-8 23 5 28 5 28 -17 9 -18 -16 -21 -17 -21 -3 0 9 -10 28 -23 42 -22 26 -23
26 -39 8z"/>
<path d="M1096 2753 c-3 -4 -6 -15 -6 -25 0 -10 -4 -18 -10 -18 -5 0 -10 -6
-10 -14 0 -18 -20 -25 -52 -19 -24 4 -26 2 -22 -18 2 -13 2 -18 -2 -11 -8 17
-24 5 -17 -14 4 -10 12 -12 27 -8 18 6 19 5 8 -9 -10 -11 -20 -13 -43 -7 -31
9 -40 -3 -14 -18 9 -4 17 -18 20 -31 4 -20 1 -22 -31 -17 l-34 6 15 -24 c16
-23 35 -36 64 -42 7 -1 18 -7 24 -13 16 -16 -76 9 -95 26 -10 9 -21 14 -24 11
-13 -13 24 -49 73 -71 29 -13 50 -26 47 -30 -9 -8 -71 2 -110 18 -37 15 -55 4
-26 -17 19 -13 22 -18 22 -36 0 -5 16 -20 36 -34 35 -25 35 -27 15 -37 -11 -7
-36 -11 -53 -10 -18 1 -39 1 -45 0 -21 -2 -15 -19 8 -26 16 -5 18 -9 9 -15 -7
-5 -18 -6 -24 -4 -6 2 -18 -1 -26 -6 -13 -9 -11 -14 13 -35 22 -20 40 -25 85
-26 l57 -1 -42 -10 c-24 -5 -43 -13 -43 -19 0 -5 -14 -9 -32 -9 -24 0 -29 -3
-20 -12 8 -8 29 -9 77 -2 52 8 65 7 65 -3 0 -13 -12 -17 -37 -14 -7 1 -27 -5
-46 -12 -28 -12 -40 -12 -70 -2 -20 7 -37 9 -37 4 0 -5 -9 -18 -20 -29 l-21
-21 31 -10 c16 -6 30 -17 30 -25 0 -8 4 -14 10 -14 5 0 7 -6 4 -14 -4 -10 5
-16 26 -21 29 -6 30 -8 13 -21 -17 -12 -16 -13 12 -14 21 0 26 -3 16 -9 -7 -5
-39 -7 -70 -5 -51 3 -58 1 -77 -23 -20 -25 -20 -28 -4 -45 9 -10 34 -24 56
-32 32 -12 35 -15 14 -15 -20 -1 -22 -3 -10 -12 12 -8 7 -9 -17 -6 -42 5 -42
-6 1 -33 22 -13 33 -26 29 -36 -3 -9 1 -14 13 -15 31 -1 51 -6 71 -18 15 -10
14 -10 -8 -5 -15 3 -30 1 -33 -5 -5 -8 -18 -6 -41 4 l-35 14 18 -27 c9 -14 11
-23 5 -19 -8 5 -13 3 -13 -7 0 -19 -39 -31 -53 -17 -17 17 -26 13 -20 -9 3
-11 1 -20 -5 -20 -15 0 -42 29 -42 46 0 12 -4 12 -20 4 -12 -7 -20 -7 -20 -1
0 5 -9 8 -20 6 -11 -2 -18 0 -15 6 4 5 16 9 28 9 12 0 29 5 37 10 13 9 13 10
0 10 -8 0 0 10 17 23 39 27 42 37 7 31 -16 -3 -23 -1 -19 6 3 5 0 10 -7 11 -7
0 1 6 19 12 18 7 38 21 46 31 12 17 12 21 -5 38 -14 14 -30 18 -63 15 -25 -2
-45 0 -45 5 0 4 5 8 11 8 8 0 8 4 0 14 -10 12 -8 15 11 18 13 2 23 8 23 13 1
18 20 41 40 49 16 6 17 9 5 16 -8 5 -16 14 -16 20 -1 5 -2 12 -3 15 0 3 -10 1
-21 -5 -15 -8 -37 -7 -79 2 -70 14 -71 31 -2 22 41 -5 51 -3 73 17 21 20 24
28 16 48 -6 17 -5 27 4 33 8 6 0 8 -23 6 -27 -3 -35 0 -32 9 3 7 10 13 17 13
32 1 -34 30 -68 30 l-41 0 32 21 c18 12 30 25 27 30 -3 5 0 9 7 9 7 0 10 3 6
6 -3 4 1 13 9 21 18 19 10 30 -10 14 -8 -6 -38 -14 -67 -17 l-54 -6 52 26 c82
43 97 73 19 41 -42 -18 -50 -6 -8 13 32 14 40 47 10 39 -25 -7 -29 5 -13 36
14 27 8 36 -12 16 -8 -8 -13 -8 -17 0 -4 6 -2 11 3 11 6 0 11 7 11 16 0 9 -5
12 -12 8 -8 -5 -9 -2 -5 9 3 9 2 19 -3 22 -6 4 -10 1 -10 -4 0 -15 -27 -14
-32 2 -6 15 -3 45 7 72 4 11 -11 0 -33 -25 -23 -26 -36 -48 -30 -51 13 -8 -30
-39 -54 -39 -11 0 -15 -5 -12 -15 4 -8 18 -15 33 -15 17 0 28 -5 28 -14 0 -17
-41 -29 -68 -21 -26 9 -24 -8 6 -43 28 -34 22 -44 -20 -36 -23 4 -26 2 -20
-13 4 -10 8 -26 9 -36 3 -22 25 -38 41 -30 5 4 7 2 2 -2 -13 -15 -49 -17 -41
-3 6 9 3 9 -9 0 -9 -8 -21 -11 -27 -7 -20 12 -10 -16 15 -41 l24 -24 -23 6
c-16 4 -25 0 -30 -11 -4 -11 -2 -14 7 -9 7 5 7 1 -2 -10 -13 -15 -11 -19 9
-33 19 -13 20 -17 8 -24 -9 -5 -29 -4 -46 1 l-32 9 14 -27 c7 -15 11 -33 9
-39 -3 -7 1 -13 8 -13 7 0 9 -3 5 -7 -8 -8 -13 -9 -41 -12 -21 -2 -8 -29 18
-37 12 -4 40 -7 62 -6 31 0 35 -1 20 -8 -11 -5 -29 -9 -41 -9 -11 -1 -29 -8
-40 -17 -16 -13 -16 -15 -2 -10 21 6 23 -5 6 -22 -16 -16 -44 -15 -72 4 -16
10 -26 12 -31 5 -3 -6 -1 -11 4 -11 6 0 11 -7 11 -15 0 -8 10 -17 23 -20 25
-7 35 -45 11 -45 -21 0 -17 -27 7 -44 12 -8 18 -19 14 -26 -6 -10 -22 -8 -61
7 -6 2 -14 -3 -17 -12 -5 -11 6 -21 38 -37 48 -24 54 -32 29 -42 -24 -9 1 -36
35 -36 23 -1 24 -2 8 -11 -10 -6 -24 -8 -31 -6 -7 3 -19 1 -26 -3 -10 -6 -7
-10 13 -15 40 -10 33 -25 -11 -25 -46 0 -54 -6 -39 -31 9 -14 8 -22 -4 -36 -8
-10 -15 -25 -15 -33 2 -35 28 -88 49 -98 22 -11 22 -11 1 -11 -20 -1 -56 -31
-38 -31 5 -1 -1 -6 -13 -13 -28 -15 -17 -36 23 -43 16 -3 34 -12 41 -21 7 -8
31 -17 54 -18 41 -3 79 -24 48 -26 -53 -4 -159 -3 -160 1 -4 28 -10 55 -13 58
-7 7 -47 -38 -41 -47 2 -5 -2 -11 -10 -15 -8 -3 -15 0 -15 7 0 7 -5 4 -11 -7
-13 -22 3 -36 33 -31 12 3 16 0 11 -8 -4 -7 -7 -21 -8 -32 0 -14 -7 -20 -22
-19 -16 0 -23 -5 -23 -18 0 -13 7 -18 25 -18 17 0 25 -5 25 -18 0 -12 8 -18
24 -18 18 0 23 5 21 18 -4 19 6 21 115 18 42 -1 58 -6 69 -20 18 -26 41 -26
41 0 0 16 7 20 30 20 24 0 30 -4 28 -17 -4 -26 79 -27 93 -1 13 23 25 23 32
-1 6 -22 42 -22 42 0 0 17 56 26 132 21 36 -3 50 -8 47 -16 -3 -7 7 -18 21
-24 23 -11 25 -10 25 13 0 25 1 25 91 25 49 0 88 -3 86 -8 -7 -10 15 -27 33
-27 12 0 15 15 15 72 0 44 5 77 13 84 15 16 15 13 16 -81 l1 -74 35 -2 c60 -4
67 1 64 49 -2 23 -3 42 -4 42 -1 0 -3 12 -5 27 -2 16 3 34 11 42 11 12 14 62
14 270 l0 255 26 48 c15 26 36 61 48 78 22 32 33 70 16 60 -5 -3 -10 -2 -10 3
0 6 11 13 24 16 14 3 30 19 38 36 7 16 16 30 20 30 5 0 8 7 8 15 0 8 5 15 11
15 8 0 7 6 -2 17 -8 9 -9 14 -2 10 7 -5 25 14 47 50 20 32 36 61 36 65 0 4
-17 8 -37 10 -37 4 -37 4 14 12 36 6 53 14 56 26 4 16 1 17 -30 8 -19 -5 -47
-6 -63 -3 -39 9 -45 7 -45 -7 0 -19 -30 -21 -45 -3 -11 13 -8 17 20 29 20 8
28 16 21 20 -6 4 -11 18 -11 32 0 28 0 27 -37 13 l-28 -10 33 30 c18 17 30 35
27 41 -3 5 -25 10 -48 10 -23 0 -49 5 -57 11 -12 9 -12 10 3 5 25 -8 63 12 49
26 -8 8 -5 19 9 37 l21 26 -48 5 -48 5 32 36 c18 20 32 41 32 46 0 5 -22 9
-49 9 -30 -1 -47 -5 -44 -11 3 -5 0 -5 -6 1 -21 19 3 53 34 50 16 -2 25 2 25
10 0 23 -4 28 -25 32 -11 1 -27 9 -35 18 -13 13 -13 16 0 24 8 5 18 11 22 12
4 2 5 13 2 25 -4 13 -10 20 -15 17 -5 -3 -9 -1 -9 4 0 12 -26 23 -34 15z
m-436 -667 c0 -33 -59 -62 -75 -36 -3 6 -18 10 -32 10 -36 0 -26 7 18 13 20 2
45 9 55 15 26 15 34 15 34 -2z m615 -76 c-6 -9 -43 -2 -50 9 -2 4 9 5 25 3 17
-2 28 -8 25 -12z m-974 -183 c-14 -14 -75 -24 -96 -17 -20 8 -17 11 24 22 27
8 81 4 72 -5z m96 -626 c2 -21 -36 -34 -58 -20 -10 6 -10 11 0 23 19 23 56 21
58 -3z m111 2 c-6 -37 -38 -38 -38 -2 0 12 7 19 20 19 14 0 20 -6 18 -17z
m192 7 c0 -5 7 -10 15 -10 18 0 20 -20 3 -21 -16 -1 -127 -1 -149 0 -9 1 -16
7 -16 15 0 11 14 15 55 15 29 0 56 2 60 5 9 10 32 7 32 -4z m-433 -66 c17 -3
22 -10 19 -27 -3 -12 -5 -25 -5 -28 -2 -10 -171 -9 -172 1 -1 6 -1 19 -1 30 0
11 0 22 1 24 1 5 132 5 158 0z m123 -29 c0 -31 -3 -35 -25 -35 -18 0 -26 7
-31 26 -7 28 7 44 39 44 13 0 17 -8 17 -35z m118 -1 c1 -28 -2 -35 -15 -32
-29 5 -22 67 8 68 3 0 6 -16 7 -36z m227 17 c-2 -9 -4 -24 -4 -33 -1 -16 -12
-18 -85 -17 -70 1 -86 4 -88 17 -10 43 0 48 91 48 76 1 88 -1 86 -15z m226
-14 c10 -36 2 -39 -97 -35 l-79 3 -1 32 -1 31 85 -1 c85 -2 86 -2 93 -30z"/>
<path d="M3472 2720 c-26 -34 -27 -40 -9 -40 8 0 14 -7 14 -15 0 -15 -25 -27
-62 -30 -11 -1 -19 -5 -17 -8 1 -4 2 -11 2 -16 0 -5 17 -11 39 -15 32 -5 38
-10 37 -28 -1 -20 -6 -23 -36 -20 -19 2 -43 5 -52 8 -27 8 -22 -17 12 -56 l30
-35 -45 -3 -46 -3 21 -34 c15 -25 17 -34 8 -38 -18 -8 10 -27 29 -20 7 3 13 0
13 -6 0 -7 -20 -11 -49 -11 -37 0 -49 -4 -47 -14 3 -21 26 -46 43 -46 8 0 11
-5 7 -11 -4 -8 -9 -8 -17 0 -19 19 -40 13 -34 -9 3 -14 -4 -30 -25 -50 -31
-32 -53 -36 -106 -21 -17 5 -32 7 -32 3 1 -19 19 -30 58 -37 48 -8 49 -19 2
-17 l-30 1 23 -40 c12 -22 32 -51 43 -64 12 -13 20 -25 18 -27 -2 -2 11 -28
29 -58 21 -35 41 -56 57 -60 24 -6 24 -6 5 -18 -13 -7 -15 -12 -6 -12 8 0 12
-3 9 -6 -4 -3 15 -40 42 -83 l48 -77 0 -258 c0 -202 3 -262 14 -272 10 -10 12
-33 8 -84 -6 -76 -5 -77 55 -76 l40 1 0 50 c0 28 -3 62 -6 77 -5 18 -3 28 7
32 21 8 26 -10 25 -85 0 -38 2 -69 7 -70 4 0 14 -2 24 -4 9 -2 18 5 21 16 5
17 15 19 87 19 71 0 83 -2 87 -18 6 -24 49 -22 47 2 -2 14 11 16 87 16 86 0
95 -3 90 -33 -1 -9 12 -9 33 -1 9 3 16 13 16 21 0 8 5 13 11 11 6 -2 10 -7 9
-12 -3 -15 24 -26 63 -24 29 1 37 5 37 20 0 13 8 18 30 18 22 0 30 -5 30 -18
0 -11 8 -18 24 -20 20 -1 24 2 21 19 -4 19 0 20 88 17 74 -2 92 -6 92 -18 0
-9 10 -15 23 -16 15 -1 22 4 22 17 0 14 7 19 25 19 16 0 25 6 25 15 0 9 -9 15
-24 15 -21 0 -24 4 -23 33 2 25 7 33 25 35 27 4 24 27 -4 27 -11 0 -19 7 -19
16 0 9 -6 24 -14 33 -8 9 -10 23 -5 33 7 17 8 30 5 53 -2 15 -31 0 -31 -17 0
-8 -4 -12 -10 -8 -5 3 -7 12 -4 19 4 10 -5 17 -28 21 -32 8 -32 8 -10 18 12 6
22 13 22 17 0 4 14 7 31 8 42 1 51 12 10 12 -28 0 -32 3 -26 18 13 29 13 56 1
71 -6 8 -11 26 -11 40 0 22 -5 27 -30 29 -48 5 -64 14 -37 21 30 8 29 26 -2
26 -13 0 -28 3 -32 8 -4 4 0 7 9 7 8 0 28 5 44 11 l28 11 -29 13 -30 13 52 26
c29 14 52 30 52 35 0 14 -25 20 -41 10 -19 -12 -49 -11 -49 1 0 6 9 19 20 30
24 24 26 40 5 40 -24 0 -17 29 9 41 22 10 42 47 31 58 -3 2 -13 -3 -23 -12
-21 -19 -62 -23 -62 -6 0 5 -4 7 -10 4 -5 -3 -10 -1 -10 4 0 6 8 11 18 11 33
1 -19 30 -54 30 -44 0 -52 16 -9 17 53 1 85 12 85 28 0 8 -7 15 -15 15 -17 0
-32 49 -18 59 5 3 12 13 16 23 5 14 1 15 -29 6 -34 -9 -54 -5 -54 12 0 5 9 12
21 15 14 5 18 12 14 23 -4 10 -8 23 -8 30 0 9 -9 12 -24 9 l-23 -4 26 23 c30
28 25 42 -13 38 -15 -1 -34 2 -43 7 -13 9 -13 10 2 5 9 -2 24 2 35 10 10 8 14
14 8 13 -23 -3 -25 2 -10 25 19 28 9 37 -29 30 -30 -5 -29 -3 5 47 19 28 16
41 -7 32 -18 -7 -78 17 -67 28 4 4 19 9 32 11 37 5 38 27 2 34 -17 4 -32 10
-32 15 -1 5 -3 14 -4 19 -1 6 -3 17 -4 26 0 8 -5 13 -9 10 -5 -3 -18 14 -30
37 l-22 42 2 -32 c1 -18 5 -33 8 -33 12 0 8 -39 -6 -51 -11 -9 -18 -9 -30 2
-14 11 -15 10 -12 -7 2 -11 -2 -18 -10 -16 -10 2 -10 -2 -2 -17 15 -29 13 -33
-11 -21 -20 11 -20 11 -4 -19 16 -31 14 -35 -17 -32 -38 4 -6 -38 42 -58 22
-8 22 -10 5 -10 -11 -1 -29 5 -40 12 -37 25 -53 27 -48 6 3 -10 9 -17 13 -14
5 3 10 1 12 -4 1 -4 21 -18 43 -29 l40 -21 -30 0 c-16 0 -46 6 -66 13 -34 12
-36 11 -31 -6 2 -10 8 -18 13 -18 5 0 9 -6 9 -14 0 -8 15 -23 33 -35 l32 -21
-41 0 c-22 0 -49 -6 -60 -14 -18 -14 -18 -15 -2 -21 10 -4 15 -11 12 -16 -3
-5 -12 -5 -23 0 -10 6 -23 6 -32 0 -11 -7 -11 -9 0 -9 7 0 11 -6 8 -13 -3 -7
3 -13 12 -14 32 -3 116 -32 94 -32 -12 -1 -28 -7 -35 -15 -11 -12 -17 -12 -41
1 -15 7 -25 18 -22 23 4 6 -1 10 -10 10 -12 0 -13 -4 -6 -18 19 -37 38 -44 90
-37 70 10 71 -9 0 -23 -41 -9 -65 -10 -78 -2 -16 8 -21 6 -26 -10 -3 -11 -14
-20 -23 -21 -10 0 -4 -7 16 -16 17 -9 32 -22 32 -29 0 -19 30 -45 43 -38 8 5
8 3 0 -6 -10 -11 -9 -16 4 -25 14 -10 6 -12 -41 -8 -52 4 -58 2 -63 -16 -3
-11 -9 -18 -14 -15 -5 3 -9 2 -9 -3 0 -14 53 -53 74 -54 12 0 15 -3 8 -6 -6
-2 -9 -9 -6 -14 3 -6 -5 -8 -20 -5 -33 6 -34 -11 -1 -26 14 -6 24 -17 21 -24
-5 -13 14 -24 44 -24 10 0 21 -4 24 -9 3 -5 -13 -8 -37 -8 -35 1 -42 -2 -42
-19 1 -23 -18 -36 -39 -28 -13 5 -14 9 -5 20 15 18 -1 17 -25 -1 -17 -13 -21
-12 -38 7 -11 13 -17 30 -15 40 6 20 -5 23 -33 8 -13 -7 -21 -7 -25 0 -3 6
-18 8 -33 4 -23 -4 -24 -4 -9 6 9 6 27 13 38 15 44 9 62 17 50 24 -7 5 2 17
26 34 l38 27 -40 0 c-30 0 -36 3 -25 10 13 9 13 10 0 11 -8 0 0 7 18 15 17 8
40 22 50 32 18 18 18 20 -2 45 -20 24 -25 26 -84 22 -38 -3 -62 -1 -62 5 0 5
6 10 14 10 8 0 13 8 12 17 0 10 5 18 12 19 6 1 16 2 21 3 5 0 11 14 14 29 4
18 17 33 39 44 22 11 27 17 15 17 -10 1 -15 6 -12 11 3 6 1 10 -5 10 -6 0 -8
5 -4 11 6 11 -17 10 -51 -2 -20 -6 -145 25 -145 36 0 9 15 9 57 2 41 -7 62 -6
76 2 11 8 16 8 12 2 -3 -6 -4 -11 -1 -11 9 0 27 40 31 68 4 27 4 27 -10 -3 -8
-16 -14 -25 -15 -20 0 6 -4 5 -8 -2 -4 -6 -20 -15 -36 -19 -21 -5 -27 -4 -22
5 4 6 1 12 -8 12 -9 1 -21 2 -28 3 -6 0 -13 7 -16 15 -3 9 0 12 10 8 39 -14
150 36 134 62 -6 10 -37 8 -56 -4 -16 -10 -11 11 6 26 14 12 14 14 -2 26 -10
7 -37 13 -61 13 -48 0 -55 11 -19 28 13 6 28 21 32 34 4 13 15 29 25 36 31 22
21 30 -18 17 -56 -19 -111 -26 -118 -15 -4 6 7 13 24 16 17 4 31 10 31 15 0 5
4 9 10 9 13 0 60 41 60 52 0 5 -15 1 -32 -8 -42 -22 -98 -35 -98 -23 0 5 11 9
24 9 24 0 76 41 76 61 0 7 -9 9 -25 5 -38 -10 -50 3 -26 25 21 20 28 49 13 49
-4 0 -13 -5 -19 -11 -8 -8 -17 -7 -35 5 l-23 17 24 -3 c13 -2 26 3 29 11 3 10
0 12 -13 7 -15 -5 -16 -4 -6 8 15 18 -1 30 -28 21 -13 -4 -25 5 -46 35 -15 22
-29 40 -29 40 -1 0 -12 -13 -24 -30z m-136 -538 c-26 -26 -50 -3 -37 35 1 2
12 -3 26 -9 23 -10 24 -13 11 -26z m25 -172 c-8 -4 -21 -5 -30 -2 -12 5 -10 8
9 12 29 8 40 3 21 -10z m1034 -179 c20 -2 20 -2 1 -16 -10 -8 -23 -12 -29 -8
-9 5 -20 7 -65 12 -7 0 -11 5 -8 10 5 7 34 8 101 2z m110 -598 c-4 -10 -10
-26 -12 -35 -3 -10 -10 -18 -17 -19 -41 -3 -148 0 -153 5 -9 9 50 29 79 27 14
-1 30 4 35 12 9 16 29 25 57 26 13 1 16 -3 11 -16z m-243 -30 c14 -17 -4 -33
-31 -28 -9 2 -18 4 -21 4 -3 1 -7 12 -8 25 -1 20 2 22 23 18 13 -2 30 -11 37
-19z m-261 5 c34 -1 46 -5 42 -15 -3 -7 -8 -13 -12 -14 -12 -1 -126 -1 -151 0
l-25 1 25 20 c16 12 34 18 50 15 14 -3 46 -6 71 -7z m129 -7 c0 -19 -23 -35
-34 -24 -14 15 -5 43 14 43 13 0 20 -7 20 -19z m-315 -86 l0 -30 -86 -2 -86
-3 -1 34 -1 34 87 -2 87 -1 0 -30z m226 22 c3 -4 4 -19 2 -31 -4 -21 -10 -23
-88 -24 -66 -1 -84 1 -89 14 -4 10 -2 13 7 8 8 -6 8 -3 -1 9 -8 9 -11 20 -8
26 7 11 169 10 177 -2z m83 -10 c-1 -10 -2 -24 -3 -32 0 -8 -8 -15 -16 -15
-10 0 -15 10 -15 34 0 27 4 34 18 32 9 -2 16 -10 16 -19z m143 -14 c1 -30 -1
-33 -28 -33 -16 0 -29 6 -30 13 0 6 -2 22 -3 34 -2 18 2 21 28 20 28 -2 31 -6
33 -34z m226 11 c2 -13 -1 -28 -6 -33 -14 -14 -167 -14 -168 -1 -1 6 -2 16 -3
23 -4 27 16 34 93 34 75 0 80 -2 84 -23z"/>
<path d="M2270 2580 c0 -4 -19 -13 -42 -20 -24 -7 -61 -20 -83 -30 -56 -24
-228 -92 -240 -94 -5 -2 -26 -9 -45 -17 -19 -9 -93 -38 -163 -65 -125 -48
-129 -50 -160 -99 -17 -27 -31 -53 -32 -57 0 -4 -6 -13 -12 -19 -7 -7 -13 -19
-13 -26 0 -7 -4 -13 -10 -13 -5 0 -10 -7 -10 -15 0 -8 -5 -15 -11 -15 -5 0 -8
-4 -5 -8 3 -5 -2 -18 -12 -28 -9 -10 -30 -44 -46 -74 -16 -30 -32 -57 -35 -60
-3 -3 -15 -21 -25 -40 -11 -19 -22 -37 -25 -40 -3 -3 -17 -25 -30 -50 -43 -80
-46 -84 -58 -98 -7 -7 -14 -19 -14 -25 -1 -7 -2 -19 -3 -27 -1 -8 3 -21 8 -27
5 -7 5 -13 0 -13 -11 0 -11 -131 0 -148 4 -6 4 -12 -1 -12 -4 0 -8 -32 -8 -70
0 -39 4 -70 8 -70 5 0 5 -5 1 -11 -9 -15 -11 -149 -2 -149 4 0 5 -7 1 -16 -9
-24 -10 -105 -1 -131 4 -14 2 -23 -6 -26 -7 -3 -275 -5 -597 -4 l-584 0 0 -34
0 -34 2284 0 2285 0 3 33 c4 29 2 32 -24 33 -15 0 -282 1 -593 2 l-565 2 -2
352 -2 352 -24 38 c-70 112 -227 377 -227 383 0 5 -3 10 -7 12 -5 2 -17 19
-27 38 -10 19 -35 60 -54 90 l-36 56 -140 54 c-78 29 -145 56 -151 60 -5 4
-50 21 -100 40 -49 18 -144 54 -210 80 -113 45 -155 55 -155 40z m165 -171
c72 -28 146 -56 165 -64 l35 -13 -57 1 c-51 0 -56 2 -45 16 10 14 9 14 -8 0
-16 -13 -40 -16 -110 -15 -49 1 -96 5 -102 9 -8 5 -13 3 -14 -5 0 -9 -2 -10
-5 -1 -4 8 -13 9 -27 4 -35 -13 -148 -11 -140 2 5 9 3 9 -8 1 -8 -6 -45 -11
-84 -12 l-70 0 40 15 c22 8 49 19 60 24 57 25 221 88 230 88 6 1 69 -22 140
-50z m440 -172 c59 -24 75 -36 98 -71 30 -47 32 -56 16 -56 -5 0 -15 14 -21
30 -9 26 -12 29 -26 18 -13 -11 -14 -10 -4 9 11 20 7 23 -65 53 -67 28 -88 32
-163 32 -47 -1 -97 -3 -112 -5 -16 -2 -28 0 -28 7 0 8 -3 8 -8 0 -4 -5 -22
-10 -40 -9 -18 0 -36 -3 -39 -8 -2 -4 -11 -3 -19 4 -10 8 -14 8 -14 0 0 -6 -5
-11 -11 -11 -5 0 -8 4 -5 8 2 4 -4 8 -14 8 -10 0 -16 -4 -14 -8 7 -11 -4 -10
-28 3 -12 6 -18 7 -14 1 3 -6 -4 -9 -18 -8 -13 0 -22 4 -19 9 2 4 -1 7 -6 7
-6 0 -11 -5 -11 -10 0 -12 -22 -9 -32 5 -5 6 -8 5 -8 -4 0 -11 -3 -11 -15 -1
-12 10 -18 10 -31 -1 -13 -10 -19 -10 -36 0 -11 7 -18 9 -15 4 3 -4 -5 -8 -18
-8 -13 0 -21 3 -19 6 2 4 -9 7 -24 7 -15 0 -88 1 -162 3 -135 2 -210 -10 -210
-33 0 -6 -3 -8 -7 -5 -3 4 -15 -1 -26 -10 -11 -10 -17 -12 -13 -5 4 6 5 12 2
12 -11 0 -46 -35 -46 -45 0 -5 5 -3 11 5 8 12 9 9 4 -10 -6 -24 -5 -24 9 -6
19 24 21 8 2 -16 -8 -11 -22 -16 -35 -13 -18 3 -20 1 -12 -9 6 -7 8 -16 4 -19
-8 -9 -53 -9 -53 -1 0 8 42 67 53 75 5 3 7 10 5 15 -3 10 48 37 119 62 44 15
102 17 548 17 l500 0 70 -28z m-395 -22 l-23 -24 24 4 c22 4 23 3 6 -9 -14
-11 -15 -15 -5 -19 10 -4 10 -8 -2 -16 -13 -9 -13 -11 3 -11 15 0 22 -11 18
-32 0 -5 6 -8 15 -8 9 0 12 5 8 13 -6 9 -5 9 8 0 8 -7 19 -9 23 -5 5 4 5 2 2
-4 -4 -6 -31 -11 -64 -10 l-58 1 0 43 c-1 24 3 46 8 49 4 2 3 11 -4 19 -12 14
-3 19 28 15 6 -1 14 3 18 9 3 5 9 10 12 10 4 0 -4 -11 -17 -25z m-323 -8 c-3
-8 -1 -20 3 -28 5 -7 5 -18 1 -24 -9 -12 -8 -26 2 -42 9 -14 1 -19 -38 -20
-16 -1 -24 1 -17 4 6 2 9 10 6 15 -4 6 -2 8 3 5 12 -8 36 17 26 26 -3 4 -13 1
-22 -6 -14 -11 -14 -10 -2 5 7 10 17 15 22 12 5 -3 9 2 9 11 0 9 -5 13 -10 10
-13 -8 -9 14 5 32 13 16 18 16 12 0z m210 -150 l-1 -113 -65 1 -66 0 -2 113
-2 112 68 0 68 0 0 -113z m493 37 c0 -2 -11 -4 -25 -4 -14 0 -25 4 -25 9 0 4
11 6 25 3 14 -2 25 -6 25 -8z m156 3 c4 -4 -10 -6 -30 -5 -20 1 -36 5 -36 10
0 9 56 5 66 -5z m-1203 -4 c-7 -2 -19 -2 -25 0 -7 3 -2 5 12 5 14 0 19 -2 13
-5z m-223 -75 c0 -6 3 -9 6 -5 7 7 34 -15 28 -24 -2 -3 7 -5 18 -4 12 1 24 7
26 13 2 7 8 12 13 12 6 0 7 -6 3 -12 -5 -8 0 -7 11 2 11 9 16 10 11 3 -9 -16
-5 -16 28 -3 18 6 27 6 32 -2 5 -8 10 -5 15 8 7 17 8 16 8 -5 1 -22 2 -23 14
-8 12 17 62 34 52 18 -5 -9 16 -20 53 -27 14 -3 25 1 29 12 5 13 7 13 14 2 7
-10 9 -10 9 2 0 13 1 13 10 0 7 -11 10 -11 10 -2 0 9 5 10 18 4 9 -5 23 -7 30
-5 7 3 19 -1 27 -7 12 -10 16 -9 21 4 5 13 9 14 20 5 11 -9 14 -7 14 9 0 14 7
20 25 20 14 0 28 -4 31 -9 3 -5 0 -9 -5 -9 -6 0 -10 -3 -10 -7 3 -21 -3 -24
-18 -12 -16 13 -17 12 -4 -3 7 -10 17 -16 21 -13 5 3 11 1 15 -5 3 -5 -1 -10
-9 -10 -8 0 -18 -5 -22 -12 -5 -8 -2 -9 10 -5 13 5 17 3 13 -7 -3 -8 -3 -17 1
-21 4 -4 7 -12 7 -18 0 -9 39 -12 133 -13 114 -1 132 1 133 15 0 9 1 42 0 73
l0 57 47 -1 c26 0 53 -5 61 -12 12 -9 13 -8 6 3 -6 11 -5 12 6 5 8 -5 22 -9
32 -10 36 -3 38 -4 31 -16 -4 -7 -4 -10 1 -6 4 4 14 3 22 -3 9 -9 13 -8 13 0
0 6 -4 11 -10 11 -5 0 -10 6 -10 13 0 9 15 12 48 11 26 0 52 -2 57 -4 6 -1 14
-2 18 -1 5 1 6 -3 2 -9 -3 -5 -1 -10 4 -10 6 0 11 5 11 11 0 8 5 8 15 -1 12
-10 18 -10 32 1 13 11 15 11 9 1 -10 -16 25 -13 36 3 5 6 8 6 8 -1 0 -7 7 -14
14 -17 11 -4 13 -1 10 11 -4 10 -3 13 3 6 12 -15 46 -27 37 -12 -5 7 -2 9 8 5
9 -3 21 0 28 6 7 7 10 7 7 2 -3 -6 -2 -17 4 -25 7 -12 9 -12 9 3 0 14 5 17 23
13 12 -3 16 -3 10 0 -21 9 -15 24 10 24 18 0 34 -19 75 -85 28 -47 52 -87 52
-89 0 -9 -1085 -3 -1097 6 -7 5 -14 5 -17 0 -8 -13 -606 -14 -606 -1 0 5 4 9
8 9 5 0 9 6 9 13 0 8 19 44 43 80 33 50 50 67 67 67 13 0 23 -5 23 -12z m333
-11 c4 3 7 1 7 -5 0 -13 -35 -11 -47 3 -5 4 -2 4 6 0 11 -6 13 -4 8 11 -7 18
-6 18 6 2 8 -10 17 -15 20 -11z m-496 -231 c-4 -10 2 -16 21 -18 15 -2 27 -8
27 -15 0 -20 13 -25 34 -11 12 7 21 20 20 28 0 10 -5 8 -16 -7 -17 -25 -35
-31 -30 -11 3 17 40 37 51 27 5 -4 14 -5 21 -3 7 3 16 -3 19 -13 5 -13 4 -15
-4 -7 -9 9 -18 5 -36 -13 -14 -14 -23 -28 -20 -30 3 -3 15 5 26 18 17 20 21
22 30 9 7 -10 10 -11 11 -2 1 6 3 17 4 22 1 6 3 15 4 20 0 6 6 10 12 10 5 0 8
-4 5 -9 -3 -5 3 -11 14 -14 11 -3 20 0 20 6 0 6 3 7 6 4 4 -4 1 -13 -5 -21
-10 -11 -8 -17 6 -26 17 -11 17 -11 0 -6 -15 5 -17 0 -13 -30 2 -20 9 -40 17
-44 15 -10 49 5 49 22 0 7 -4 7 -14 -1 -10 -8 -16 -9 -21 -1 -3 6 -10 8 -15 5
-5 -3 -8 4 -7 15 2 26 14 26 22 -1 5 -15 10 -17 20 -9 19 16 27 -4 12 -31 -10
-20 -20 -24 -64 -25 -43 -1 -51 1 -46 15 5 15 5 15 -8 0 -12 -14 -34 -16 -134
-15 l-120 1 -3 33 c-2 18 1 32 7 32 6 0 11 5 11 11 0 20 61 99 77 99 9 0 13
-6 10 -14z m322 -9 c12 -15 12 -17 -3 -11 -9 3 -16 13 -16 22 0 8 1 13 3 11 1
-2 9 -12 16 -22z m26 12 c11 -16 1 -19 -13 -3 -7 8 -8 14 -3 14 5 0 13 -5 16
-11z m46 -6 c13 -17 13 -17 -6 -3 -11 8 -22 16 -24 17 -2 2 0 3 6 3 6 0 17 -8
24 -17z m39 11 c0 -8 -19 -13 -24 -6 -3 5 1 9 9 9 8 0 15 -2 15 -3z m93 -12
c-4 -8 0 -10 11 -6 9 3 13 11 9 18 -3 6 -2 7 2 3 31 -27 0 -41 -49 -21 -14 5
-17 4 -11 -5 6 -10 3 -11 -13 -2 -36 19 -32 27 12 27 31 -1 42 -5 39 -14z
m341 0 c3 7 3 3 0 -9 -6 -24 9 -32 22 -12 4 8 9 7 16 -2 8 -11 9 -11 5 1 -2 8
-10 14 -16 13 -6 -2 -11 2 -11 7 0 13 13 13 28 -2 8 -8 15 -8 29 3 17 13 17
13 3 -5 -16 -21 -23 -49 -9 -40 5 3 7 9 4 14 -3 4 3 11 13 15 28 13 42 14 48
4 8 -14 26 -11 18 4 -4 6 2 3 15 -7 16 -15 24 -17 33 -8 7 7 17 8 30 1 12 -6
18 -6 18 1 0 5 9 10 20 10 11 0 20 -5 20 -11 0 -5 5 -7 10 -4 8 5 7 12 -2 23
-11 14 -9 14 8 0 23 -20 39 -24 28 -7 -5 8 -1 8 13 0 14 -7 23 -7 31 1 7 7 12
8 12 3 0 -6 5 -3 10 5 6 10 10 11 10 3 0 -7 5 -13 11 -13 5 0 8 4 5 8 -3 5 1
9 9 9 8 0 15 -4 15 -9 0 -4 -5 -8 -11 -8 -8 0 -7 -6 2 -17 13 -16 12 -17 -2
-5 -10 7 -27 15 -39 17 -18 3 -20 1 -14 -18 6 -20 6 -20 -10 -4 -10 9 -23 17
-29 17 -8 0 -7 -3 2 -9 9 -6 10 -11 2 -15 -6 -4 -11 -2 -11 3 0 6 -9 11 -20
11 -11 0 -20 -5 -20 -11 0 -6 6 -9 14 -6 7 3 19 0 26 -6 10 -9 14 -9 17 1 4
10 8 10 19 1 8 -6 14 -8 14 -3 1 11 29 -38 30 -50 0 -5 -10 0 -23 12 -26 24
-37 28 -37 11 0 -5 4 -8 9 -5 13 9 31 -18 22 -33 -7 -10 -14 -8 -31 11 -22 23
-22 23 -11 1 8 -16 8 -23 1 -23 -6 0 -8 -5 -4 -11 5 -8 9 -8 14 1 4 7 12 10
18 6 6 -3 15 2 21 11 6 11 11 13 11 5 0 -10 3 -10 14 0 10 9 11 17 4 25 -6 7
-8 19 -4 28 3 8 0 14 -6 12 -6 -1 -13 4 -15 11 -3 6 0 12 5 12 12 0 33 -25 31
-36 -4 -26 1 -36 14 -25 8 6 17 8 20 4 4 -3 7 -1 7 6 0 7 5 9 11 6 6 -5 3 -12
-9 -21 -11 -8 -19 -21 -18 -29 3 -18 16 -32 16 -17 0 7 5 12 11 12 8 0 7 -5
-1 -15 -9 -11 -16 -13 -24 -5 -12 12 -29 14 -22 2 3 -5 -2 -9 -10 -9 -10 0
-11 4 -4 11 17 17 11 30 -7 15 -9 -8 -23 -14 -32 -14 -9 0 -20 -3 -26 -6 -14
-8 -78 -5 -92 4 -7 5 -13 4 -13 0 0 -5 -11 -9 -24 -9 -14 0 -22 5 -19 11 2 7
-3 12 -11 12 -8 0 -12 -6 -9 -15 5 -12 2 -12 -15 -3 -12 7 -22 9 -22 5 0 -3
-8 0 -17 7 -11 10 -14 10 -9 2 9 -16 15 -15 -116 -17 -69 -1 -108 2 -108 9 0
5 -5 3 -11 -5 -8 -12 -12 -12 -16 -2 -4 10 -8 10 -21 0 -12 -10 -16 -10 -19 0
-3 6 -10 9 -16 5 -17 -11 -167 -11 -167 0 0 5 6 7 12 5 7 -3 19 2 27 9 11 12
17 11 35 -4 11 -10 15 -11 9 -3 -17 18 -17 38 -1 22 7 -7 16 -12 22 -12 5 0 1
7 -10 15 -18 15 -18 15 0 13 11 -2 22 5 27 20 6 15 5 21 -1 17 -6 -3 -10 -13
-10 -20 0 -9 -6 -12 -15 -8 -17 6 -15 28 3 28 5 0 14 3 18 8 13 12 21 8 27
-14 3 -12 10 -18 16 -14 7 4 8 12 2 23 -5 9 -10 22 -11 27 -1 6 -6 9 -12 7 -5
-1 -7 2 -3 8 5 8 12 7 22 -2 14 -11 15 -10 9 12 -6 24 -6 25 5 3 11 -21 13
-22 26 -5 9 10 12 11 7 2 -4 -8 -13 -22 -21 -32 -11 -12 -12 -18 -2 -24 8 -5
10 -3 5 5 -5 8 -3 12 5 10 8 -1 21 -1 29 0 13 1 13 3 0 11 -12 7 -11 12 5 30
13 14 22 17 29 10 14 -14 29 -13 20 3 -5 8 -2 8 9 -2 16 -13 22 -8 17 14 -1 5
7 1 18 -8 16 -14 21 -15 26 -5z m489 -7 c-7 -21 -12 -19 -10 4 0 11 5 18 9 15
4 -3 5 -11 1 -19z m80 5 c20 -16 26 -17 30 -5 7 17 44 16 44 -2 0 -10 -4 -10
-11 -3 -12 12 -29 13 -22 1 10 -15 -22 -20 -34 -5 -15 17 -34 19 -24 2 4 -7 3
-8 -5 -4 -6 4 -9 11 -6 16 3 4 -1 11 -7 13 -8 3 -9 6 -2 6 6 1 23 -8 37 -19z
m358 -18 c8 -15 23 -40 34 -55 11 -16 20 -41 21 -57 0 -26 -2 -27 -35 -23 -20
3 -44 5 -53 4 -10 0 -18 5 -18 12 0 8 -3 8 -11 0 -6 -6 -18 -9 -27 -6 -10 4
-13 2 -8 -5 5 -8 2 -10 -8 -6 -9 3 -13 11 -10 16 4 6 1 8 -7 6 -8 -3 -13 -10
-12 -15 2 -11 -107 -11 -124 0 -7 5 -13 4 -13 -2 0 -5 -9 -9 -20 -8 -11 1 -20
5 -20 10 0 4 -6 5 -12 1 -9 -6 -9 -3 0 9 8 9 11 21 7 27 -3 5 -2 10 4 10 16 0
25 -22 11 -30 -8 -5 -7 -9 5 -13 10 -5 14 -3 9 5 -5 7 -3 8 6 3 9 -5 11 -4 6
3 -4 6 -2 21 4 32 9 17 14 19 26 9 8 -6 14 -16 14 -21 0 -6 -6 -6 -14 1 -18
15 -34 -5 -17 -22 8 -8 11 -7 11 2 0 11 3 11 16 0 14 -11 18 -11 28 2 10 14
13 14 30 -3 19 -17 20 -17 33 2 19 27 8 43 -19 29 -14 -8 -23 -8 -31 0 -15 15
-18 43 -4 38 7 -3 11 -9 10 -14 -1 -5 5 -10 13 -10 10 0 11 4 5 10 -7 7 -7 16
2 26 11 14 10 15 -7 1 -18 -14 -19 -13 -13 2 8 23 -7 32 -23 13 -7 -8 -9 -15
-4 -15 9 -1 -25 -24 -36 -25 -3 0 -15 -6 -27 -13 -15 -8 -23 -9 -23 -2 0 7 -7
7 -22 -1 -17 -9 -23 -9 -26 0 -2 6 -9 8 -14 5 -6 -4 -8 -2 -4 4 3 6 18 9 32 6
17 -3 23 -1 19 7 -5 8 -2 8 11 1 21 -10 47 -5 39 8 -3 5 3 7 14 5 30 -6 35 24
6 37 -14 6 -25 16 -25 21 0 5 7 4 15 -3 12 -10 18 -10 29 -1 10 9 16 9 21 1 4
-6 21 -10 39 -9 52 3 68 0 61 -13 -4 -7 1 -4 9 6 9 11 16 14 16 7 0 -7 4 -10
9 -6 5 3 12 1 16 -5 4 -6 11 -8 16 -5 5 3 6 -1 3 -9 -3 -9 -1 -16 6 -16 6 0 8
5 5 10 -3 6 -1 10 4 10 6 0 11 -5 11 -12 0 -6 3 -8 7 -5 3 4 -3 16 -14 27 -12
10 -24 16 -27 13 -3 -4 -6 -2 -6 4 0 32 32 22 51 -15z m-1510 15 c-6 -8 -7
-18 -3 -22 4 -5 1 -5 -6 -1 -10 6 -10 11 -1 22 6 8 14 14 16 14 3 0 0 -6 -6
-13z m774 -5 c-3 -3 -11 0 -18 7 -9 10 -8 11 6 5 10 -3 15 -9 12 -12z m-680
-2 c3 -5 1 -10 -4 -10 -6 0 -11 5 -11 10 0 6 2 10 4 10 3 0 8 -4 11 -10z
m1019 -9 c4 -5 -3 -7 -14 -4 -23 6 -26 13 -6 13 8 0 17 -4 20 -9z m-761 -16
c-3 -9 -8 -14 -10 -11 -3 3 -2 9 2 15 9 16 15 13 8 -4z m912 -3 c-3 -3 -11 0
-18 7 -9 10 -8 11 6 5 10 -3 15 -9 12 -12z m-234 -35 c-10 -9 -11 -8 -5 6 3
10 9 15 12 12 3 -3 0 -11 -7 -18z m-1051 3 c0 -5 -4 -10 -10 -10 -5 0 -10 5
-10 10 0 6 5 10 10 10 6 0 10 -4 10 -10z m1135 -20 c-3 -5 5 -11 17 -13 22 -5
22 -5 -1 -4 -15 1 -25 9 -27 20 -1 9 2 15 7 11 5 -3 7 -9 4 -14z m177 11 c-11
-7 -11 -9 2 -14 17 -7 11 -37 -6 -37 -7 0 -6 5 1 14 9 11 8 15 -4 20 -18 6
-11 26 8 26 8 0 8 -3 -1 -9z m-982 -20 c0 -4 -10 -7 -22 -8 -13 0 -17 1 -10 4
6 3 10 9 7 14 -4 5 1 6 9 3 9 -3 16 -9 16 -13z m-214 -7 c-3 -8 -2 -23 3 -33
7 -13 6 -18 -3 -18 -8 0 -12 11 -11 26 3 36 4 41 11 41 3 0 3 -7 0 -16z m47
-4 c4 0 5 6 1 13 -5 8 -2 7 10 -2 9 -8 15 -20 12 -28 -5 -13 4 -17 37 -14 9 1
17 -1 17 -6 0 -10 -81 -10 -97 0 -7 5 -12 19 -11 32 2 16 6 21 12 15 6 -6 14
-10 19 -10z m-116 -12 c-3 -8 -6 -5 -6 6 -1 11 2 17 5 13 3 -3 4 -12 1 -19z
m167 7 c3 -8 1 -15 -4 -15 -6 0 -10 7 -10 15 0 8 2 15 4 15 2 0 6 -7 10 -15z
m906 0 c11 -13 10 -14 -4 -9 -9 3 -16 10 -16 15 0 13 6 11 20 -6z m262 -7 c-6
-6 -15 -8 -19 -4 -4 4 -1 11 7 16 19 12 27 3 12 -12z m-182 2 c0 -5 -4 -10
-10 -10 -5 0 -10 5 -10 10 0 6 5 10 10 10 6 0 10 -4 10 -10z m-1142 -36 c2 -1
-8 -1 -21 0 -15 0 -23 6 -20 14 4 10 9 10 22 0 9 -7 17 -13 19 -14z m27 8 c-3
-3 -11 0 -18 7 -9 10 -8 11 6 5 10 -3 15 -9 12 -12z m1035 -2 c0 -5 -5 -10
-11 -10 -5 0 -7 5 -4 10 3 6 8 10 11 10 2 0 4 -4 4 -10z m-1320 -81 c36 0 86
3 113 7 l47 6 0 -90 0 -89 -162 1 -163 1 -5 40 c-3 22 -3 52 1 66 4 15 3 32
-1 40 -15 23 1 31 54 24 28 -3 80 -6 116 -6z m445 -199 l0 -205 -95 -2 c-52 0
-102 1 -110 3 -14 3 -16 31 -14 202 0 108 2 200 2 205 1 4 50 6 110 5 l107 -3
0 -205z m132 194 c9 -8 22 -13 29 -10 8 3 14 1 14 -4 0 -5 7 -6 17 -3 12 5 14
3 8 -8 -7 -12 -6 -12 7 -1 14 11 18 10 28 -5 9 -15 10 -14 4 7 -6 22 -5 23 9
12 11 -9 21 -11 33 -4 11 6 13 11 5 16 -6 4 -11 2 -11 -3 0 -6 -5 -11 -12 -11
-9 0 -9 3 0 12 8 8 41 13 82 13 39 1 67 -1 62 -4 -8 -7 -32 -48 -32 -57 0 -3
8 4 18 16 24 30 107 38 92 9 -15 -27 -12 -31 8 -11 11 9 16 22 13 27 -2 6 2 4
11 -2 8 -7 17 -11 20 -8 2 3 5 -2 5 -10 0 -11 -4 -12 -14 -4 -7 6 -13 9 -13 5
0 -3 -1 -9 -2 -13 -5 -12 32 -11 39 1 5 7 17 18 28 24 11 6 14 12 8 12 -24 0
-13 20 10 20 14 0 24 -6 24 -15 0 -8 -4 -15 -9 -15 -5 0 -6 -5 -2 -11 4 -7 0
-9 -14 -5 -16 5 -24 1 -32 -16 -11 -22 -10 -22 4 -4 9 11 16 14 16 7 0 -7 5
-9 10 -6 6 3 12 0 15 -7 5 -13 9 -72 6 -94 -1 -13 -551 -15 -551 -2 0 4 6 8
13 8 8 0 9 2 1 8 -9 5 -12 116 -5 150 3 9 45 -1 58 -14z m878 -259 c1 -148 -1
-275 -3 -281 -2 -8 -52 -11 -160 -10 l-157 1 -3 281 -2 282 162 -2 163 -1 0
-270z m333 184 l0 -86 -133 1 c-74 0 -137 4 -141 9 -4 4 -2 7 5 7 7 0 9 5 6
11 -6 8 -9 103 -6 141 1 4 61 6 135 5 l134 -1 0 -87z m-1628 -238 l0 -88 -159
1 c-88 1 -162 4 -165 7 -5 5 -10 132 -7 162 1 4 75 7 166 7 l165 0 0 -89z
m906 9 c0 -41 -1 -80 -3 -85 -2 -7 -95 -11 -276 -10 l-272 0 -1 80 c0 44 1 83
3 88 3 4 127 6 276 5 l272 -3 1 -75z m719 -10 l0 -85 -132 -1 -133 -1 -1 34
c0 18 0 56 0 83 0 28 0 52 0 55 1 3 61 4 134 3 l132 -3 0 -85z m-729 -154 c11
-4 12 -27 5 -77 -1 -3 -277 -5 -613 -5 l-613 1 -1 25 c-1 14 -3 32 -5 40 -3
10 7 16 31 20 44 6 1178 3 1196 -4z m718 1 c12 -5 16 -43 7 -78 0 -3 -58 -6
-128 -5 l-128 1 -3 42 -3 42 53 3 c74 4 185 1 202 -5z"/>
<path d="M1630 2146 c0 -2 7 -7 16 -10 8 -3 12 -2 9 4 -6 10 -25 14 -25 6z"/>
<path d="M2470 2126 c0 -2 7 -7 16 -10 8 -3 12 -2 9 4 -6 10 -25 14 -25 6z"/>
<path d="M2140 2110 c0 -5 5 -10 11 -10 5 0 7 5 4 10 -3 6 -8 10 -11 10 -2 0
-4 -4 -4 -10z"/>
<path d="M2710 2012 c0 -5 11 -15 25 -22 13 -7 22 -16 20 -20 -2 -3 10 -6 28
-5 18 1 38 -3 45 -8 9 -7 11 -5 6 8 -5 12 -4 16 3 12 6 -4 16 0 22 7 10 11 9
14 -3 12 -9 -1 -19 -5 -22 -9 -10 -9 -26 -9 -21 1 3 4 -6 8 -19 8 -13 1 -24
-2 -24 -8 0 -5 -13 0 -30 12 -16 12 -30 17 -30 12z m100 -37 c0 -2 -9 -3 -19
-2 -11 0 -18 5 -15 9 4 6 34 0 34 -7z"/>
<path d="M1830 2001 c0 -6 4 -13 10 -16 6 -3 7 1 4 9 -7 18 -14 21 -14 7z"/>
<path d="M2585 1990 c8 -9 12 -20 8 -25 -5 -4 -2 -5 5 -1 9 6 10 11 3 20 -6 7
-9 15 -6 18 3 2 -2 5 -10 5 -13 0 -13 -2 0 -17z"/>
<path d="M2670 2000 c8 -5 20 -10 25 -10 6 0 3 5 -5 10 -8 5 -19 10 -25 10 -5
0 -3 -5 5 -10z"/>
<path d="M1750 1993 c0 -6 8 -17 18 -24 16 -13 16 -13 2 6 -8 11 -16 22 -17
24 -2 2 -3 0 -3 -6z"/>
<path d="M1810 1991 c0 -6 4 -13 10 -16 6 -3 7 1 4 9 -7 18 -14 21 -14 7z"/>
<path d="M2710 1981 c0 -5 5 -13 10 -16 6 -3 10 -2 10 4 0 5 -4 13 -10 16 -5
3 -10 2 -10 -4z"/>
<path d="M2026 1968 c3 -5 10 -6 15 -3 13 9 11 12 -6 12 -8 0 -12 -4 -9 -9z"/>
<path d="M2086 1968 c3 -5 10 -6 15 -3 13 9 11 12 -6 12 -8 0 -12 -4 -9 -9z"/>
<path d="M2870 1969 c0 -5 5 -7 10 -4 6 3 10 8 10 11 0 2 -4 4 -10 4 -5 0 -10
-5 -10 -11z"/>
<path d="M1598 1750 c14 -17 16 -34 2 -25 -5 3 -10 1 -10 -4 0 -23 33 -6 38
19 2 8 0 12 -4 8 -4 -4 -14 -2 -23 4 -13 10 -14 10 -3 -2z"/>
<path d="M1550 1715 c0 -5 5 -17 10 -25 5 -8 10 -10 10 -5 0 6 -5 17 -10 25
-5 8 -10 11 -10 5z"/>
<path d="M1610 1655 c0 -5 5 -17 10 -25 5 -8 10 -10 10 -5 0 6 -5 17 -10 25
-5 8 -10 11 -10 5z"/>
<path d="M2181 1757 c-9 -12 -8 -16 4 -20 8 -4 13 -12 11 -19 -1 -7 -1 -9 2
-5 2 4 11 2 20 -5 13 -11 14 -11 7 2 -5 8 -10 21 -12 29 -3 24 -19 33 -32 18z"/>
<path d="M2255 1761 c-3 -6 -11 -9 -16 -6 -5 4 -9 1 -9 -4 0 -6 10 -9 23 -7
20 3 25 11 14 22 -3 3 -8 0 -12 -5z"/>
<path d="M2390 1750 c0 -4 7 -11 16 -14 9 -4 12 -11 8 -18 -5 -7 4 -5 20 5
l28 19 -6 -24 c-3 -12 -3 -17 0 -10 5 10 9 10 22 0 9 -7 13 -8 10 -3 -3 6 0
16 8 23 9 8 14 9 14 2 0 -6 4 -9 9 -6 5 4 11 2 13 -4 2 -6 12 -12 23 -14 15
-3 21 1 22 15 2 23 -15 35 -29 21 -7 -7 -17 -8 -28 -2 -13 7 -22 5 -30 -5 -11
-13 -14 -13 -25 1 -8 12 -14 14 -19 6 -9 -15 -27 -16 -23 -1 1 6 -6 13 -15 14
-10 2 -18 0 -18 -5z m180 -18 c0 -13 -12 -22 -22 -16 -10 6 -1 24 13 24 5 0 9
-4 9 -8z"/>
<path d="M2510 1706 c0 -2 8 -10 18 -17 15 -13 16 -12 3 4 -13 16 -21 21 -21
13z"/>
<path d="M2175 1679 c-4 -6 -5 -12 -2 -15 2 -3 7 2 10 11 7 17 1 20 -8 4z"/>
<path d="M2741 1666 c-9 -11 -9 -16 1 -22 7 -4 10 -4 6 1 -4 4 -3 14 3 22 6 7
9 13 6 13 -2 0 -10 -6 -16 -14z"/>
<path d="M2099 1643 c-12 -16 -12 -17 2 -6 9 7 20 9 24 5 5 -4 5 -1 1 6 -9 16
-11 15 -27 -5z"/>
<path d="M2447 1647 c-3 -8 1 -14 8 -14 7 0 11 6 8 14 -3 7 -6 13 -8 13 -2 0
-5 -6 -8 -13z"/>
<path d="M2613 1653 c4 -3 0 -11 -9 -17 -13 -10 -13 -12 3 -13 12 -1 19 6 20
18 1 10 -3 19 -9 19 -6 0 -8 -3 -5 -7z"/>
<path d="M2996 1761 c-4 -5 -2 -12 3 -15 5 -4 12 -2 15 3 4 5 2 12 -3 15 -5 4
-12 2 -15 -3z"/>
<path d="M3060 1750 c-9 -6 -10 -10 -3 -10 6 0 15 5 18 10 8 12 4 12 -15 0z"/>
<path d="M3131 1734 c0 -11 3 -14 6 -6 3 7 2 16 -1 19 -3 4 -6 -2 -5 -13z"/>
<path d="M3154 1730 c0 -13 4 -16 10 -10 7 7 7 13 0 20 -6 6 -10 3 -10 -10z"/>
<path d="M3075 1730 c-4 -6 1 -7 11 -3 13 5 15 3 9 -7 -5 -9 -4 -11 4 -6 6 4
9 12 6 17 -8 12 -22 12 -30 -1z"/>
<path d="M3110 1693 c0 -6 8 -17 18 -24 16 -13 16 -13 2 6 -8 11 -16 22 -17
24 -2 2 -3 0 -3 -6z"/>
<path d="M1830 1651 c0 -6 5 -11 11 -11 5 0 8 -4 5 -8 -3 -5 1 -9 7 -9 7 0 13
10 14 21 1 12 -1 15 -4 8 -4 -10 -8 -10 -19 -1 -10 8 -14 8 -14 0z"/>
<path d="M2303 1535 c4 -5 -3 -15 -15 -22 -13 -7 -18 -12 -12 -13 5 0 18 6 29
13 15 12 16 15 4 22 -8 5 -10 4 -6 0z"/>
<path d="M2344 1498 l-19 -23 23 19 c21 18 27 26 19 26 -2 0 -12 -10 -23 -22z"/>
<path d="M2388 1502 c4 -11 1 -13 -8 -7 -9 5 -11 4 -6 -3 10 -16 14 -15 25 6
7 14 6 19 -4 19 -7 0 -11 -7 -7 -15z"/>
<path d="M1322 2288 c5 -41 45 -69 89 -65 38 3 83 32 74 48 -7 10 -67 -7 -76
-22 -10 -17 -74 23 -73 44 1 10 -3 17 -8 17 -5 0 -8 -10 -6 -22z"/>
<path d="M3260 2290 c0 -12 -12 -26 -30 -35 -28 -14 -32 -14 -46 0 -17 17 -74
21 -74 5 0 -6 7 -13 15 -16 8 -4 13 -9 11 -13 -2 -3 17 -7 43 -8 36 -2 52 2
71 20 24 21 37 67 19 67 -5 0 -9 -9 -9 -20z"/>
</g>
</svg>
